PathFileType	4	(X/Y/Z)	FAILT01_SDP01_markers.trc
DataRate	CameraRate	NumFrames	NumMarkers	Units	OrigDataRate	OrigDataStartFrame	OrigNumFrames
100	100	4	59	mm	100	224	446
Frame#	Time	RSH			LSH			C7			LELB			LWR			RELB			RWR			RASI			LASI			SACR			P1			P2			P3			LTHLP			LTHLD			LTHAP			LTHAD			LLEPI			LPAT			LTIAP			LTIAD			LTILAT			LLMAL			LHEEL			LMFS			LMFL			LP5MT			LP1MT			LTOE			RTHLP			RTHLD			RTHAP			RTHAD			RLEPI			RPAT			RTIAP			RTIAD			RTILAT			RLMAL			RHEEL			RMFS			RMFL			RP5MT			RP1MT			RTOE			P4			*46			*47			*48			*49			*50			*51			*52			*53			*54			*55			*56			*57			*58			
		X1	Y1	Z1	X2	Y2	Z2	X3	Y3	Z3	X4	Y4	Z4	X5	Y5	Z5	X6	Y6	Z6	X7	Y7	Z7	X8	Y8	Z8	X9	Y9	Z9	X10	Y10	Z10	X11	Y11	Z11	X12	Y12	Z12	X13	Y13	Z13	X14	Y14	Z14	X15	Y15	Z15	X16	Y16	Z16	X17	Y17	Z17	X18	Y18	Z18	X19	Y19	Z19	X20	Y20	Z20	X21	Y21	Z21	X22	Y22	Z22	X23	Y23	Z23	X24	Y24	Z24	X25	Y25	Z25	X26	Y26	Z26	X27	Y27	Z27	X28	Y28	Z28	X29	Y29	Z29	X30	Y30	Z30	X31	Y31	Z31	X32	Y32	Z32	X33	Y33	Z33	X34	Y34	Z34	X35	Y35	Z35	X36	Y36	Z36	X37	Y37	Z37	X38	Y38	Z38	X39	Y39	Z39	X40	Y40	Z40	X41	Y41	Z41	X42	Y42	Z42	X43	Y43	Z43	X44	Y44	Z44	X45	Y45	Z45	X46	Y46	Z46	X47	Y47	Z47	X48	Y48	Z48	X49	Y49	Z49	X50	Y50	Z50	X51	Y51	Z51	X52	Y52	Z52	X53	Y53	Z53	X54	Y54	Z54	X55	Y55	Z55	X56	Y56	Z56	X57	Y57	Z57	X58	Y58	Z58	X59	Y59	Z59
224	        2.2300000191	     -626.4576613903	     1316.2732124329	      436.9513168931	     -531.0565382242	     1329.8568725586	      698.7739503384	     -525.6918966770	     1383.0137252808	      542.8563803434	     -630.2495002747	     1047.1100807190	      723.3005762100	     -703.3904194832	     1186.5766048431	      555.3651154041	     -781.1418771744	     1101.5514135361	      504.7131031752	     -661.8274152279	     1184.2825412750	      688.1048083305	     -568.0393278599	      846.5474247932	      448.5668465495	     -518.4053927660	      882.3403716087	      660.1409018040	     -403.4859836102	      987.4678254128	      494.4945350289	     -390.3958946466	      994.2945837975	      544.5484071970	     -416.5760800242	      980.6410670280	      444.4406442344	     -362.2252605855	      935.4709982872	      494.7652071714	     -501.5072375536	      684.8769783974	      714.3014073372	     -543.5496419668	      594.5975184441	      694.7449743748	     -605.7217717171	      724.3195772171	      649.7201323509	     -640.3151154518	      632.2414875031	      634.4054639339	     -600.2356112003	      483.8618338108	      685.3713989258	     -679.6675324440	      505.1595568657	      615.4090911150	     -622.4360764027	      316.6449069977	      616.0621047020	     -589.2550349236	      209.0106010437	      611.2750917673	     -568.9465403557	      270.6780433655	      684.6631169319	     -529.2820185423	       92.3854708672	      660.0917577744	     -460.8570486307	       54.5768886805	      621.3558614254	     -606.5583229065	       85.0345790386	      600.7380187511	     -584.7837626934	       58.6252957582	      652.3690223694	     -635.7515752316	       25.3905169666	      676.8316626549	     -646.6887295246	       40.2935706079	      549.1384118795	     -694.0039098263	       52.2669628263	      577.5235146284	     -432.4870258570	      630.2014589310	      399.8064119369	     -389.3769606948	      543.5187220573	      436.0696114600	     -504.1087120771	      631.3585042953	      524.9353051186	     -447.6967900991	      547.7394461632	      546.1436212063	     -340.1893861592	      439.0518367290	      467.5518944860	     -381.3708275557	      446.2662041187	      565.0875568390	     -218.7837734818	      305.0269484520	      548.8888472319	     -140.8880054951	      237.8599047661	      547.6174652576	     -182.8672885895	      267.4076557159	      467.5285518169	      -48.5951006413	      137.9690319300	      494.2485839128	       21.4127004147	      173.2348948717	      487.1719703078	      -63.3699595928	      107.1208864450	      596.4782685041	      -33.9646339417	       72.5710615516	      552.7870208025	      -32.5748026371	       22.9871608317	      587.7280831337	      -22.1783816814	      114.2824888229	      671.2124645710	      -63.6396706104	       68.3878734708	      677.7403950691	     -414.9765744805	     1002.0756721497	      497.5645318627	     -300.7080554962	        0.0000000000	      382.1262419224	     -300.7080554962	        0.0000000000	      382.1262419224	     -300.7080554962	        0.0000000000	      382.1262419224	     -300.7080554962	        0.0000000000	      382.1262419224	     -300.7080554962	        0.0000000000	      382.1262419224	     -300.7080554962	        0.0000000000	      382.1262419224	     -300.7080554962	        0.0000000000	      382.1262419224	     -300.7080554962	        0.0000000000	      382.1262419224	     -300.7080554962	        0.0000000000	      382.1262419224	     -300.7080554962	        0.0000000000	      382.1262419224	     -300.7080554962	        0.0000000000	      382.1262419224	     -300.7080554962	        0.0000000000	      382.1262419224	     -300.7080554962	        0.0000000000	      382.1262419224
225	        2.2400000095	     -637.3986601830	     1319.4701671600	      436.0825158656	     -543.2573407888	     1333.5834741592	      697.9443132877	     -537.5437289476	     1386.3203525543	      542.2121286392	     -641.7990326881	     1050.9209632874	      722.7514088154	     -714.8523032665	     1189.9136304855	      554.3856173754	     -792.2313511372	     1104.9097776413	      503.3307746053	     -673.8184988499	     1187.9286766052	      687.0331466198	     -579.6429812908	      850.6559729576	      447.7692097425	     -531.5407216549	      884.5432400703	      659.8587036133	     -415.0228053331	      990.4161691666	      495.4428896308	     -402.4198055267	      996.8327283859	      545.7087904215	     -427.6258051395	      983.9996099472	      445.1769888401	     -373.9870637655	      938.2752776146	      495.7412481308	     -511.1940652132	      685.9474778175	      714.7353589535	     -553.1583428383	      596.2721109390	      695.7500874996	     -616.3017451763	      725.2182364464	      650.0014662743	     -649.7535705566	      631.7871212959	      635.0308060646	     -607.3124408722	      483.9072227478	      685.8020126820	     -687.0987713337	      503.3624768257	      616.4612472057	     -626.4089643955	      315.8346414566	      615.9019619226	     -591.0864472389	      208.7961137295	      610.6255352497	     -573.6286044121	      270.1227962971	      684.6806704998	     -530.0192236900	       92.5973504782	      660.5300903320	     -461.1434638500	       55.4492995143	      621.7105835676	     -607.0547103882	       85.0305184722	      600.8516699076	     -585.0100219250	       58.6443059146	      652.4845063686	     -635.7678771019	       25.3933276981	      676.8609285355	     -646.7449367046	       40.2782224119	      549.2208600044	     -694.2581534386	       51.8385395408	      577.6125043631	     -446.8049108982	      633.0282092094	      399.1757500917	     -406.3305407763	      544.8608994484	      434.8986372352	     -520.9598839283	      634.9871158600	      522.5263088942	     -468.4415012598	      548.1010079384	      543.2186573744	     -359.2472933233	      439.2209351063	      466.0717695951	     -406.8188145757	      442.9467618465	      561.6513490677	     -237.5542148948	      306.2682151794	      546.8089282513	     -158.1536531448	      241.5745854378	      545.6397384405	     -197.4448859692	      272.5800871849	      465.9825488925	      -58.4007203579	      148.0782479048	      492.2111555934	       11.8400156498	      184.7717612982	      491.0454750061	      -79.1363567114	      113.6633828282	      591.6188061237	      -45.7726716995	       80.8719098568	      548.9293932915	      -47.8716194630	       30.2745774388	      581.0698121786	      -43.7064766884	      117.6936924458	      669.8135137558	      -86.0510468483	       73.1162577868	      670.2235043049	     -426.4272302389	     1005.0851106644	      498.4572976828	     -300.7080554962	        0.0000000000	      382.1262419224	     -300.7080554962	        0.0000000000	      382.1262419224	     -300.7080554962	        0.0000000000	      382.1262419224	     -300.7080554962	        0.0000000000	      382.1262419224	     -300.7080554962	        0.0000000000	      382.1262419224	     -300.7080554962	        0.0000000000	      382.1262419224	     -300.7080554962	        0.0000000000	      382.1262419224	     -300.7080554962	        0.0000000000	      382.1262419224	     -300.7080554962	        0.0000000000	      382.1262419224	     -300.7080554962	        0.0000000000	      382.1262419224	     -300.7080554962	        0.0000000000	      382.1262419224	     -300.7080554962	        0.0000000000	      382.1262419224	     -300.7080554962	        0.0000000000	      382.1262419224
226	        2.2500000000	     -647.7740406990	     1322.9244947433	      434.8436072469	     -555.7318925858	     1337.5737667084	      697.0177590847	     -548.9892512560	     1389.9816274643	      541.5371954441	     -653.3640027046	     1054.9155473709	      721.6385304928	     -726.0996401310	     1193.2876110077	      552.6819825172	     -802.8360009193	     1108.1426143646	      500.9376928210	     -685.9198212624	     1191.5768384933	      685.4304969311	     -591.1743342876	      855.1540374756	      446.8426033854	     -544.6600764990	      887.0356678963	      659.5211923122	     -426.2978583574	      993.6276078224	      496.5524896979	     -414.2449498177	      999.6630549431	      546.9879209995	     -438.3507817984	      987.5921607018	      446.1170658469	     -385.5616301298	      941.2780404091	      496.9899207354	     -521.6350704432	      687.7588033676	      715.0614857674	     -562.2756779194	      598.2294082642	      696.9925463200	     -626.9806623459	      725.5862951279	      649.6903896332	     -658.9215993881	      630.8422088623	      635.2342367172	     -614.1531467438	      483.8802218437	      686.3187253475	     -693.6897337437	      501.7774105072	      617.7905946970	     -629.7531425953	      315.2365684509	      615.7248616219	     -592.8700864315	      208.5452824831	      610.4486584663	     -577.9352486134	      269.5832550526	      684.6805810928	     -530.6856334209	       92.8190425038	      660.9246730804	     -461.4253342152	       56.2648773193	      622.0785826445	     -607.5177788734	       85.0315093994	      601.0056436062	     -585.3196382523	       58.6304552853	      652.6400446892	     -635.8167529106	       25.3648683429	      676.8881976604	     -646.7800438404	       40.2982831001	      549.2769926786	     -694.4859325886	       51.4617934823	      577.7195841074	     -462.1197283268	      635.8843445778	      398.2695154846	     -424.5907217264	      546.1092591286	      433.2319796085	     -538.1364524364	      638.9439105988	      520.1377421618	     -489.5857870579	      548.3117103577	      540.2973890305	     -380.0581321120	      439.2995834351	      463.8835787773	     -432.8987449408	      439.7956728935	      557.0837259293	     -257.6273530722	      308.1795871258	      544.4855690002	     -174.7107952833	      247.4713027477	      544.1139787436	     -212.9023000598	      279.0823280811	      464.1313776374	      -70.8556175232	      159.6678495407	      491.0008609295	        0.4438757896	      195.7672238350	      494.7994351387	      -96.9761461020	      121.7322498560	      587.1402770281	      -62.2737556696	       90.3766751289	      544.4025695324	      -67.9032355547	       37.9633307457	      572.6992487907	      -64.8896396160	      120.2710941434	      666.4007604122	     -108.9401692152	       76.8583714962	      661.8494987488	     -437.6600086689	     1008.3522796631	      499.5462298393	     -625.3127157688	      521.8725204468	     1408.8554680347	     -300.7080554962	        0.0000000000	      382.1262419224	     -300.7080554962	        0.0000000000	      382.1262419224	     -300.7080554962	        0.0000000000	      382.1262419224	     -300.7080554962	        0.0000000000	      382.1262419224	     -300.7080554962	        0.0000000000	      382.1262419224	     -300.7080554962	        0.0000000000	      382.1262419224	     -300.7080554962	        0.0000000000	      382.1262419224	     -300.7080554962	        0.0000000000	      382.1262419224	     -300.7080554962	        0.0000000000	      382.1262419224	     -300.7080554962	        0.0000000000	      382.1262419224	     -300.7080554962	        0.0000000000	      382.1262419224	     -300.7080554962	        0.0000000000	      382.1262419224
227	        2.2599999905	     -657.6111614704	     1326.6957998276	      433.3329312503	     -568.4567391872	     1341.6993618011	      696.0778832436	     -560.4074895382	     1393.8847780228	      540.8558994532	     -665.0584638119	     1058.8458776474	      720.0935184956	     -737.1291220188	     1196.6964006424	      550.3398925066	     -812.9209280014	     1111.3483905792	      497.6645708084	     -698.0578303337	     1195.2371597290	      683.4056079388	     -602.4807393551	      859.9081635475	      445.8992034197	     -557.7335357666	      889.8419141769	      659.1783463955	     -437.3942762613	      997.0140457153	      497.8558495641	     -425.9410947561	     1002.7160644531	      548.4564006329	     -448.8474875689	      991.3120269775	      447.2552910447	     -397.0204740763	      944.4125890732	      498.5646829009	     -532.7638685703	      690.3883814812	      715.6717181206	     -571.6058909893	      599.4318127632	      698.1984972954	     -637.4838054180	      725.1833081245	      649.0032672882	     -667.6796972752	      629.3492317200	      635.0073218346	     -620.4675734043	      483.3715856075	      686.9708895683	     -699.4672119617	      500.1826286316	      619.0200895071	     -632.6272487640	      314.6773278713	      615.8443838358	     -594.6667790413	      208.2718908787	      610.8164638281	     -581.2134742737	      269.3701684475	      685.0146949291	     -531.2357842922	       93.0123180151	      661.3849401474	     -461.6853445768	       56.9897890091	      622.2397983074	     -607.8638434410	       85.0982144475	      601.1734157801	     -585.5779945850	       58.6457625031	      652.8086960316	     -635.8353793621	       25.3770537674	      676.9161522388	     -646.8215882778	       40.3008759022	      549.3084639311	     -694.6253180504	       51.1654689908	      577.7722299099	     -478.3003926277	      638.7760639191	      397.1437346190	     -444.3213492632	      547.3209023476	      431.2821701169	     -555.4383695126	      643.2335376740	      517.6105052233	     -511.6940140724	      549.2740869522	      536.3743752241	     -402.6279821992	      439.3835961819	      461.0774219036	     -460.1924717426	      436.8125796318	      550.9559065104	     -279.3423011899	      310.2816343307	      541.8109595776	     -193.9729675651	      253.3280253410	      542.2736406326	     -229.3911203742	      286.9466245174	      461.9999304414	      -85.8161747456	      171.7049479485	      489.5904287696	      -14.1730308533	      207.4047178030	      498.4913319349	     -116.9303208590	      129.8107802868	      581.6904604435	      -81.3696086407	      101.3816073537	      538.5739207268	      -89.0868455172	       46.3971756399	      562.7977401018	      -88.5552763939	      122.5857436657	      661.6467237473	     -133.7232589722	       80.8959081769	      652.0462930202	     -448.7268030643	     1011.7175579071	      500.7752403617	     -300.7080554962	        0.0000000000	      382.1262419224	     -555.1804602146	     -244.7265088558	     -535.6205403805	     -300.7080554962	        0.0000000000	      382.1262419224	     -300.7080554962	        0.0000000000	      382.1262419224	     -300.7080554962	        0.0000000000	      382.1262419224	     -300.7080554962	        0.0000000000	      382.1262419224	     -300.7080554962	        0.0000000000	      382.1262419224	     -300.7080554962	        0.0000000000	      382.1262419224	     -300.7080554962	        0.0000000000	      382.1262419224	     -300.7080554962	        0.0000000000	      382.1262419224	     -300.7080554962	        0.0000000000	      382.1262419224	     -300.7080554962	        0.0000000000	      382.1262419224	     -300.7080554962	        0.0000000000	      382.1262419224
